<?xml version="1.0" encoding="UTF-8"?><svg id="Layer_2" xmlns="http://www.w3.org/2000/svg" xmlns:xlink="http://www.w3.org/1999/xlink" viewBox="0 0 152.66 183.33"><defs><clipPath id="clippath"><path d="M152.66,107c0,42.13-34.2,76.33-76.33,76.33S0,149.13,0,107,34.2,30.67,76.33,30.67s76.33,34.2,76.33,76.33" style="clip-rule:evenodd; fill:#27539e; stroke-width:0px;"/></clipPath><clipPath id="clippath-1"><rect x="-165.47" y="-1845.05" width="1133.86" height="3310.87" style="fill:#27539e; stroke-width:0px;"/></clipPath><clipPath id="clippath-2"><rect x="-165.45" y="-1845.06" width="1133.85" height="3310.86" style="fill:#27539e; stroke-width:0px;"/></clipPath><clipPath id="clippath-3"><rect x="62.72" y="17.24" width="34.62" height="49.4" style="fill:none; stroke-width:0px;"/></clipPath></defs><g id="Layer_1-2"><path d="M152.66,107c0,42.13-34.2,76.33-76.33,76.33S0,149.13,0,107,34.2,30.67,76.33,30.67s76.33,34.2,76.33,76.33" style="fill:#27539e; fill-rule:evenodd;"/><g style="clip-path:url(#clippath);"><rect x="-165.47" y="-1845.05" width="1133.86" height="3310.87" style="fill:#27539e;"/><g style="clip-path:url(#clippath-1);"><rect x="-165.45" y="-1845.06" width="1133.85" height="3310.86" style="fill:#27539e;"/><g style="clip-path:url(#clippath-2);"><path d="M152.66,107c0,42.13-34.2,76.33-76.33,76.33S0,149.13,0,107,34.2,30.67,76.33,30.67s76.33,34.2,76.33,76.33Z" style="fill:#27539e; stroke:#26529d; stroke-miterlimit:10; stroke-width:16px;"/></g></g></g><path d="M144.66,107c0,37.72-30.61,68.33-68.33,68.33S8,144.72,8,107,38.61,38.67,76.33,38.67s68.33,30.61,68.33,68.33Z" style="fill:#000; fill-rule:evenodd; stroke-width:0px;"/><polygon points="105.51 73.34 118.27 32.04 76.33 0 34.39 32.04 47.15 73.34 105.51 73.34" style="fill:#26529d; fill-rule:evenodd; stroke-width:0px;"/><g style="clip-path:url(#clippath-3);"><path d="M83.12,49.19v-7.44c0-.59-.46-1.08-1.02-1.08s-1.02.48-1.02,1.08v2.56h-16.32v-24.48h16.32v9.71c0,.59.46,1.08,1.02,1.08s1.02-.48,1.02-1.08v-10.27c0-1.13-.91-2.04-2.04-2.04h-16.32c-1.13,0-2.04.91-2.04,2.04v29.92c0,1.13.91,2.04,2.04,2.04h16.32c1.13,0,2.04-.91,2.04-2.04M76.16,48.62h-6.49v-1.85h6.49v1.85ZM96.7,53.67c-.84-.84-2.21-.84-3.05,0l-9.29,9.29c-.84.84-.84,2.21,0,3.05.84.84,2.21.84,3.05,0l9.29-9.29c.84-.84.84-2.21,0-3.05ZM91.76,46.85l-1.73-8.81c0-1.05-.64-1.99-1.61-2.39l-6.81-2.83c-1.33-.55-2.86.08-3.41,1.41-.55,1.33.08,2.86,1.41,3.41l5.22,2.17.33,2.29v7.09c0,1.09-.42,2.12-1.2,2.89t0,0c-.77.77-1.8,1.2-2.89,1.2h-10.25s7.48,7.48,7.48,7.48c.82.82,2.14.82,2.95,0l9.25-9.25c1.08-1.08,1.65-3.18,1.26-4.66Z" style="fill:#fff; stroke-width:0px;"/></g></g></svg>