<?xml version="1.0" encoding="UTF-8"?><svg id="Layer_2" xmlns="http://www.w3.org/2000/svg" xmlns:xlink="http://www.w3.org/1999/xlink" viewBox="0 0 1764.39 3314.02"><defs><clipPath id="clippath"><path d="M948.66,1955.2c0,42.13-34.2,76.33-76.33,76.33s-76.33-34.2-76.33-76.33,34.2-76.33,76.33-76.33,76.33,34.2,76.33,76.33" style="clip-rule:evenodd; fill:#27539e; stroke-width:0px;"/></clipPath><clipPath id="clippath-1"><rect x="630.53" y="3.15" width="1133.86" height="3310.87" style="fill:#27539e; stroke-width:0px;"/></clipPath><clipPath id="clippath-2"><rect x="630.54" y="3.14" width="1133.85" height="3310.86" style="fill:#27539e; stroke-width:0px;"/></clipPath><clipPath id="clippath-3"><rect x="852.05" y="1862.16" width="40.55" height="49.41" style="fill:none; stroke-width:0px;"/></clipPath><clipPath id="clippath-4"><rect x="852.05" y="1862.16" width="40.55" height="49.41" style="fill:none; stroke-width:0px;"/></clipPath><clipPath id="clippath-5"><rect y="0" width="1133.86" height="3310.87" style="fill:none; stroke-width:0px;"/></clipPath><clipPath id="clippath-6"><rect x=".02" width="1133.85" height="3310.86" style="fill:none; stroke-width:0px;"/></clipPath></defs><g id="Layer_1-2"><path d="M948.66,1955.2c0,42.13-34.2,76.33-76.33,76.33s-76.33-34.2-76.33-76.33,34.2-76.33,76.33-76.33,76.33,34.2,76.33,76.33" style="fill:#27539e; fill-rule:evenodd;"/><g style="clip-path:url(#clippath);"><rect x="630.53" y="3.15" width="1133.86" height="3310.87" style="fill:#27539e;"/><g style="clip-path:url(#clippath-1);"><rect x="630.54" y="3.14" width="1133.85" height="3310.86" style="fill:#27539e;"/><g style="clip-path:url(#clippath-2);"><path d="M948.66,1955.2c0,42.13-34.2,76.33-76.33,76.33s-76.33-34.2-76.33-76.33,34.2-76.33,76.33-76.33,76.33,34.2,76.33,76.33Z" style="fill:#27539e; stroke:#26529d; stroke-miterlimit:10; stroke-width:16px;"/></g></g></g><path d="M940.66,1955.2c0,37.72-30.61,68.33-68.33,68.33s-68.33-30.61-68.33-68.33,30.61-68.33,68.33-68.33,68.33,30.61,68.33,68.33Z" style="fill:#000; fill-rule:evenodd; stroke-width:0px;"/><polygon points="901.51 1921.54 914.27 1880.24 872.33 1848.2 830.38 1880.24 843.15 1921.54 901.51 1921.54" style="fill:#26529d; fill-rule:evenodd; stroke-width:0px;"/><g style="clip-path:url(#clippath-3);"><path d="M886.51,1893.64c-3.71,2.19-11.74,6.84-11.74,6.84-.06.23-.14.45-.24.67-.54,1.16-1.56,1.99-2.79,2.3-.92.23-1.91.13-2.77-.27l-6.23-2.98v-1.06l6.66,3.13c.55.26,1.15.34,1.71.27.11-.02.21-.03.31-.05.03,0,.05,0,.08-.02.63-.15,1.21-.51,1.65-1.02.19-.22.34-.46.47-.72.14-.29.23-.59.27-.89.12-.86-.11-1.74-.65-2.42-.3-.38-.69-.7-1.15-.92,0,0-7.15-3.33-9.53-4.44-.95-.44-2.13-.09-3.47.14-1.35.23-6.55,1.07-6.55,1.07-.26.06-.49.33-.49.61v12.05c0,.28.23.51.5.51h4.7s.67-.02,1.04.06c.21.04.73.25.73.25l12.13,4.72c.53.15,1.08.15,1.61.02.25-.06.5-.14.73-.28,3.79-2.37,15.49-11.48,16.78-12.48,2.94-2.29,2.61-3.91,1.7-5.21-1.01-1.45-3.28-1.15-5.44.13" style="fill:#fff; stroke-width:0px;"/></g><g style="clip-path:url(#clippath-4);"><g style="clip-path:url(#clippath-5);"><g style="clip-path:url(#clippath-6);"><path d="M874.16,1896.99c.46.66.73,1.44.76,2.24l10.88-6.33c-.77-.54-1.78-.69-2.7-.31l-8.95,4.4" style="fill:#fff; stroke-width:0px;"/><path d="M871.95,1884.46c6.14,0,11.15-5.01,11.15-11.15,0-.89-.11-1.76-.31-2.62l-1.27,1.66c.03.33.05.65.05.96,0,2.56-1,4.98-2.82,6.79-1.82,1.81-4.23,2.82-6.79,2.82s-4.98-1-6.8-2.82c-1.82-1.82-2.82-4.23-2.82-6.79s1-4.98,2.82-6.8c1.82-1.82,4.23-2.82,6.8-2.82,1.59,0,3.15.4,4.54,1.14l.94-1.23c-1.67-.95-3.56-1.45-5.48-1.45-6.15,0-11.15,5-11.15,11.15s5,11.15,11.15,11.15" style="fill:#fff; stroke-width:0px;"/><path d="M868.5,1871.24c-.28-.35-.71-.55-1.15-.55-.34,0-.67.12-.94.34-.63.52-.73,1.45-.22,2.09l4.59,5.65c.28.35.7.55,1.15.55h.02c.46,0,.88-.22,1.15-.59l10.3-13.44c.5-.66.38-1.59-.27-2.09-.26-.2-.58-.31-.91-.31-.47,0-.9.21-1.18.58l-9.15,11.95-3.4-4.19" style="fill:#fff; stroke-width:0px;"/><path d="M878.99,1888.46l4.31.21.1-.04-2.56-6.51c-1.92,1.93-4.45,3.24-7.28,3.61l2.31,5.87.11-.04,3-3.1" style="fill:#fff; stroke-width:0px;"/><path d="M860.92,1888.64l.11.04,4.31-.21,3,3.1.1.04,2.29-5.82c-2.84-.27-5.4-1.5-7.37-3.35l-2.44,6.2" style="fill:#fff; stroke-width:0px;"/></g></g></g></g></svg>