<?xml version="1.0" encoding="UTF-8"?><svg id="Layer_2" xmlns="http://www.w3.org/2000/svg" xmlns:xlink="http://www.w3.org/1999/xlink" viewBox="0 0 1133.86 3310.88"><defs><clipPath id="clippath"><path d="M318.13,1952.06c0,42.13-34.2,76.33-76.33,76.33s-76.33-34.2-76.33-76.33,34.2-76.33,76.33-76.33,76.33,34.2,76.33,76.33" style="clip-rule:evenodd; fill:#27539e; stroke-width:0px;"/></clipPath><clipPath id="clippath-1"><rect y="0" width="1133.86" height="3310.87" style="fill:#27539e; stroke-width:0px;"/></clipPath><clipPath id="clippath-2"><rect x=".02" width="1133.85" height="3310.86" style="fill:#27539e; stroke-width:0px;"/></clipPath><clipPath id="clippath-3"><rect x="223.82" y="1859.53" width="49.41" height="48.39" style="fill:none; stroke-width:0px;"/></clipPath></defs><g id="Layer_1-2"><path d="M318.13,1952.06c0,42.13-34.2,76.33-76.33,76.33s-76.33-34.2-76.33-76.33,34.2-76.33,76.33-76.33,76.33,34.2,76.33,76.33" style="fill:#27539e; fill-rule:evenodd;"/><g style="clip-path:url(#clippath);"><rect y="0" width="1133.86" height="3310.87" style="fill:#27539e;"/><g style="clip-path:url(#clippath-1);"><rect x=".02" width="1133.85" height="3310.86" style="fill:#27539e;"/><g style="clip-path:url(#clippath-2);"><path d="M318.13,1952.06c0,42.13-34.2,76.33-76.33,76.33s-76.33-34.2-76.33-76.33,34.2-76.33,76.33-76.33,76.33,34.2,76.33,76.33Z" style="fill:#27539e; stroke:#26529d; stroke-miterlimit:10; stroke-width:16px;"/></g></g></g><path d="M310.13,1952.05c0,37.72-30.61,68.33-68.33,68.33s-68.33-30.61-68.33-68.33,30.61-68.33,68.33-68.33,68.33,30.61,68.33,68.33Z" style="fill:#000; fill-rule:evenodd; stroke-width:0px;"/><polygon points="270.98 1918.39 283.74 1877.1 241.8 1845.06 199.86 1877.1 212.62 1918.39 270.98 1918.39" style="fill:#26529d; fill-rule:evenodd; stroke-width:0px;"/><path d="M247.96,1903.49c-.03.28.43.55.67.42l3.62-2.09c.18-.1.19-.35.02-.47l-3.32-2.26c-.17-.12-.4-.01-.43.19l-.55,4.21" style="fill:#fff; stroke-width:0px;"/><path d="M258.46,1883.85l-8.71,13.19c-.09.13-.05.31.08.4l3.75,2.38c.13.08.3.05.39-.08l8.62-13.14c.09-.13.05-.31-.08-.39l-3.66-2.43c-.13-.09-.31-.05-.39.08" style="fill:#fff; stroke-width:0px;"/><g style="clip-path:url(#clippath-3);"><path d="M273.13,1875.45c.2-.31.1-.73-.22-.95l-1.38-.95c-.14-.1-.18-.3-.09-.44l.51-.79c.05-.08.13-.23.16-.33.2-.62.19-1.8-1.02-2.63,0,0-.02-.01-.03-.02-1.16-.78-2.24-.47-2.76-.13-.11.07-.26.22-.34.33l-.98,1.42s-.04.06-.05.09c-.01.02-.03.03-.04.05l-7.19,10.88c-.1.15-.06.35.09.45l3.58,2.38c.15.1.35.06.45-.09l6.53-9.96c.1-.15.31-.19.46-.09l.51.35c.15.1.18.3.09.45l-6.69,10.18c-.2.31-.1.73.22.95,0,0,0,0,0,0,.33.22.76.14.97-.17l7.22-11M268.85,1871.24l.42-.6c.04-.06.11-.11.18-.13.15-.04.4-.03.71.17,0,0,0,0,.01,0,.33.22.38.46.36.63,0,.05-.02.09-.05.13l-.39.61c-.1.15-.31.2-.46.09l-.7-.47c-.15-.1-.19-.31-.08-.45Z" style="fill:#fff; stroke-width:0px;"/><path d="M232.14,1868.8h15.03c.47,0,.84-.38.85-.84l.02-3.51c0-.47-.37-.85-.84-.85l-3.3-.04c0-2.22-1.8-4.03-4.03-4.03s-4.03,1.8-4.03,4.03h-3.71c-.47,0-.85.38-.85.85v3.55c0,.47.38.85.85.85M239.82,1861.86c.98,0,1.78.8,1.78,1.78s-.8,1.78-1.78,1.78-1.78-.8-1.78-1.78.8-1.78,1.78-1.78Z" style="fill:#fff; stroke-width:0px;"/></g><path d="M254.17,1901.99l-6.32,3.66c-.44.23-1.26-.25-1.21-.75l.93-7.14c-.06-.06-.1-.25.11-.56l8.99-13.64v-14.66c0-1.08-.88-1.96-1.96-1.96h-4.76l-.02,2.49c0,.57-.47,1.03-1.04,1.03h-18.37c-.57,0-1.04-.46-1.04-1.04v-2.49h-3.72c-1.08,0-1.96.88-1.96,1.96v37.06c0,1.08.88,1.96,1.96,1.96h28.94c1.08,0,1.96-.88,1.96-1.96v-7.34l-2.07,3.17c-.1.15-.26.22-.43.21M238.49,1879h13.35c.47,0,.86.39.86.86s-.39.86-.86.86h-13.35c-.47,0-.86-.39-.86-.86s.38-.86.86-.86ZM238.49,1888.55h10.46c.47,0,.86.39.86.86s-.38.86-.86.86h-10.46c-.47,0-.86-.38-.86-.86s.38-.86.86-.86ZM227.65,1876.83c0-.51.43-.92.97-.92h4.38c.32,0,.57.26.57.57s-.26.57-.57.57h-4.2v4.27h5.06v-2.13c0-.32.26-.57.57-.57s.57.26.57.57v2.36c0,.51-.43.92-.97.92h-5.42c-.53,0-.97-.41-.97-.92v-4.72ZM227.65,1886.37c0-.51.43-.92.97-.92h4.38c.32,0,.57.26.57.57s-.26.57-.57.57h-4.2v4.26h5.06v-2.13c0-.32.26-.57.57-.57s.57.26.57.57v2.36c0,.51-.43.92-.97.92h-5.42c-.53,0-.97-.41-.97-.92v-4.72ZM234.99,1900.63c0,.51-.43.92-.97.92h-5.42c-.53,0-.97-.41-.97-.92v-4.72c0-.51.43-.92.97-.92h4.38c.32,0,.57.26.57.57s-.26.57-.57.57h-4.2v4.26h5.06v-2.13c0-.32.26-.57.57-.57s.57.26.57.57v2.36ZM235.21,1896.36l-3.52,3c-.11.09-.24.14-.37.14s-.27-.05-.37-.14l-1.22-1.05c-.24-.21-.27-.57-.06-.81.21-.24.57-.27.81-.06l.85.73,3.15-2.68c.24-.21.6-.18.81.06.21.24.18.6-.06.81ZM235.21,1886.83l-3.52,3c-.11.09-.24.14-.37.14s-.27-.05-.37-.14l-1.22-1.05c-.24-.21-.27-.57-.06-.81.21-.24.57-.27.81-.06l.85.73,3.15-2.68c.24-.2.6-.18.81.07.21.24.18.6-.06.81ZM235.21,1877.29l-3.52,3c-.11.09-.24.14-.37.14s-.27-.05-.37-.14l-1.22-1.05c-.24-.21-.27-.57-.06-.81.21-.24.57-.27.81-.06l.85.73,3.15-2.68c.24-.21.6-.18.81.06.21.24.18.6-.06.81ZM245.19,1899.83h-6.7c-.47,0-.86-.38-.86-.86s.38-.86.86-.86h6.7c.47,0,.86.39.86.86s-.38.86-.86.86Z" style="fill:#fff; stroke-width:0px;"/></g></svg>