<?xml version="1.0" encoding="UTF-8"?><svg id="Layer_2" xmlns="http://www.w3.org/2000/svg" xmlns:xlink="http://www.w3.org/1999/xlink" viewBox="0 0 1343.66 3311"><defs><clipPath id="clippath"><path d="M527.92,1952.06c0,42.13-34.2,76.33-76.33,76.33s-76.33-34.2-76.33-76.33,34.2-76.33,76.33-76.33,76.33,34.2,76.33,76.33" style="clip-rule:evenodd; fill:#27539e; stroke-width:0px;"/></clipPath><clipPath id="clippath-1"><rect x="209.79" y="0" width="1133.86" height="3310.87" style="fill:#27539e; stroke-width:0px;"/></clipPath><clipPath id="clippath-2"><rect x="209.81" width="1133.85" height="3310.86" style="fill:#27539e; stroke-width:0px;"/></clipPath><clipPath id="clippath-3"><rect x="431.5" y="1869.08" width="49.41" height="35.83" style="fill:none; stroke-width:0px;"/></clipPath><clipPath id="clippath-4"><rect y=".14" width="1133.86" height="3310.87" style="fill:none; stroke-width:0px;"/></clipPath><clipPath id="clippath-5"><rect x=".02" y=".13" width="1133.85" height="3310.86" style="fill:none; stroke-width:0px;"/></clipPath><clipPath id="clippath-6"><rect x="431.5" y="1869.08" width="49.41" height="35.83" style="fill:none; stroke-width:0px;"/></clipPath><clipPath id="clippath-7"><rect x="431.5" y="1869.08" width="49.41" height="35.83" style="fill:none; stroke-width:0px;"/></clipPath><clipPath id="clippath-8"><rect y=".14" width="1133.86" height="3310.87" style="fill:none; stroke-width:0px;"/></clipPath><clipPath id="clippath-9"><rect x=".02" y=".13" width="1133.85" height="3310.86" style="fill:none; stroke-width:0px;"/></clipPath></defs><g id="Layer_1-2"><path d="M527.92,1952.06c0,42.13-34.2,76.33-76.33,76.33s-76.33-34.2-76.33-76.33,34.2-76.33,76.33-76.33,76.33,34.2,76.33,76.33" style="fill:#27539e; fill-rule:evenodd;"/><g style="clip-path:url(#clippath);"><rect x="209.79" y="0" width="1133.86" height="3310.87" style="fill:#27539e;"/><g style="clip-path:url(#clippath-1);"><rect x="209.81" width="1133.85" height="3310.86" style="fill:#27539e;"/><g style="clip-path:url(#clippath-2);"><path d="M527.92,1952.06c0,42.13-34.2,76.33-76.33,76.33s-76.33-34.2-76.33-76.33,34.2-76.33,76.33-76.33,76.33,34.2,76.33,76.33Z" style="fill:#27539e; stroke:#26529d; stroke-miterlimit:10; stroke-width:16px;"/></g></g></g><path d="M519.92,1952.05c0,37.72-30.61,68.33-68.33,68.33s-68.33-30.61-68.33-68.33,30.61-68.33,68.33-68.33,68.33,30.61,68.33,68.33Z" style="fill:#000; fill-rule:evenodd; stroke-width:0px;"/><polygon points="480.78 1918.39 493.54 1877.1 451.59 1845.06 409.65 1877.1 422.41 1918.39 480.78 1918.39" style="fill:#26529d; fill-rule:evenodd; stroke-width:0px;"/><g style="clip-path:url(#clippath-3);"><g style="clip-path:url(#clippath-4);"><g style="clip-path:url(#clippath-5);"><path d="M434.07,1902.35v-20.16h33.37v.28c.83-.18,1.68-.28,2.57-.28v-5.42c0-1.44-1.16-2.6-2.6-2.6h-2.65v4.06c0,1.13-.92,2.05-2.05,2.05s-2.05-.92-2.05-2.05v-4.06h-19.78v4.06c0,1.13-.92,2.05-2.05,2.05s-2.05-.92-2.05-2.05v-4.06h-2.66c-1.44,0-2.6,1.16-2.6,2.6v25.54c0,1.43,1.16,2.6,2.6,2.6h31.39c-1.44-.6-2.73-1.47-3.82-2.55h-27.6" style="fill:#fff; stroke-width:0px;"/><rect x="436.05" y="1890.35" width="3.85" height="3.85" style="fill:#fff; stroke-width:0px;"/><rect x="436.05" y="1896.55" width="3.85" height="3.85" style="fill:#fff; stroke-width:0px;"/><rect x="442.44" y="1884.15" width="3.85" height="3.85" style="fill:#fff; stroke-width:0px;"/><rect x="442.44" y="1890.35" width="3.85" height="3.85" style="fill:#fff; stroke-width:0px;"/><rect x="442.44" y="1896.55" width="3.85" height="3.85" style="fill:#fff; stroke-width:0px;"/><rect x="448.82" y="1884.15" width="3.85" height="3.85" style="fill:#fff; stroke-width:0px;"/><rect x="448.82" y="1890.35" width="3.85" height="3.85" style="fill:#fff; stroke-width:0px;"/><rect x="448.82" y="1896.55" width="3.85" height="3.85" style="fill:#fff; stroke-width:0px;"/><rect x="455.21" y="1884.15" width="3.85" height="3.85" style="fill:#fff; stroke-width:0px;"/><path d="M455.21,1890.35v3.85h2.99c0-.07,0-.13,0-.2,0-1.27.2-2.5.58-3.65h-3.56" style="fill:#fff; stroke-width:0px;"/><path d="M455.21,1900.4h3.85v-1.96c-.25-.61-.44-1.23-.59-1.89h-3.26v3.85" style="fill:#fff; stroke-width:0px;"/></g></g></g><path d="M438.81,1879.52c.71,0,1.28-.57,1.28-1.28v-7.87c0-.71-.57-1.28-1.28-1.28s-1.28.58-1.28,1.28v7.87c0,.71.57,1.28,1.28,1.28" style="fill:#fff; stroke-width:0px;"/><path d="M462.69,1879.52c.71,0,1.28-.57,1.28-1.28v-7.87c0-.71-.57-1.28-1.28-1.28s-1.28.58-1.28,1.28v7.87c0,.71.57,1.28,1.28,1.28" style="fill:#fff; stroke-width:0px;"/><g style="clip-path:url(#clippath-6);"><path d="M470,1883.09c-6.01,0-10.91,4.89-10.91,10.91s4.89,10.91,10.91,10.91,10.91-4.89,10.91-10.91-4.89-10.91-10.91-10.91M470,1902.81c-4.86,0-8.81-3.95-8.81-8.81s3.95-8.81,8.81-8.81,8.81,3.95,8.81,8.81-3.95,8.81-8.81,8.81Z" style="fill:#fff; stroke-width:0px;"/></g><g style="clip-path:url(#clippath-7);"><g style="clip-path:url(#clippath-8);"><g style="clip-path:url(#clippath-9);"><path d="M476.63,1892.95h-5.58v-4.51c0-.58-.47-1.05-1.05-1.05s-1.05.47-1.05,1.05v5.56c0,.58.47,1.05,1.05,1.05h6.63c.58,0,1.05-.47,1.05-1.05s-.47-1.05-1.05-1.05" style="fill:#fff; stroke-width:0px;"/></g></g></g></g></svg>