<?xml version="1.0" encoding="UTF-8"?><svg id="Layer_2" xmlns="http://www.w3.org/2000/svg" viewBox="0 0 19.32 19.32"><g id="Layer_1-2"><path d="M19.32,9.66c0,5.33-4.33,9.66-9.66,9.66S0,14.99,0,9.66,4.33,0,9.66,0s9.66,4.33,9.66,9.66" style="fill:#26529d; fill-rule:evenodd; stroke-width:0px;"/><path d="M4.94,8.04h2.02v6.49h-2.02v-6.49ZM5.95,4.81c.65,0,1.17.52,1.17,1.17s-.52,1.17-1.17,1.17-1.17-.52-1.17-1.17.52-1.17,1.17-1.17" style="fill:#fff; stroke-width:0px;"/><path d="M8.22,8.04h1.94v.89h.03c.27-.51.93-1.05,1.91-1.05,2.04,0,2.42,1.34,2.42,3.09v3.56h-2.02v-3.16c0-.75-.01-1.72-1.05-1.72s-1.21.82-1.21,1.67v3.21h-2.02v-6.49" style="fill:#fff; stroke-width:0px;"/></g></svg>