<?xml version="1.0" encoding="UTF-8"?><svg id="Layer_2" xmlns="http://www.w3.org/2000/svg" viewBox="0 0 591.43 106.76"><g id="Layer_1-2"><path d="M154.12,102.42c-3.06-2.89-4.59-6.75-4.59-11.57v-28.45c0-4.83,1.53-8.68,4.59-11.57,3.06-2.89,7.11-4.34,12.16-4.34s9.12,1.46,12.21,4.38c3.09,2.92,4.63,6.79,4.63,11.62v3.2c0,.28-.1.52-.29.72-.2.2-.44.29-.72.29h-9.85c-.28,0-.52-.1-.72-.29-.2-.2-.29-.43-.29-.72v-3.37c0-1.68-.45-3.04-1.35-4.08-.9-1.04-2.1-1.56-3.62-1.56s-2.64.52-3.54,1.56c-.9,1.04-1.35,2.4-1.35,4.08v28.62c0,1.68.45,3.04,1.35,4.08.9,1.04,2.08,1.56,3.54,1.56s2.72-.52,3.62-1.56c.9-1.04,1.35-2.4,1.35-4.08v-6.73c0-.28-.14-.42-.42-.42h-3.7c-.28,0-.52-.1-.72-.29-.2-.2-.29-.43-.29-.72v-7.49c0-.28.1-.52.29-.72s.43-.29.72-.29h14.98c.28,0,.52.1.72.29.2.2.29.44.29.72v15.57c0,4.83-1.54,8.69-4.63,11.57-3.09,2.89-7.16,4.34-12.21,4.34s-9.11-1.44-12.16-4.34Z" style="fill:#fff; stroke-width:0px;"/><path d="M189.98,105.79c-.2-.2-.29-.43-.29-.72v-56.91c0-.28.1-.52.29-.72.2-.2.43-.29.72-.29h9.85c.28,0,.52.1.72.29.2.2.29.44.29.72v47.31c0,.28.14.42.42.42h17.68c.28,0,.52.1.72.29.2.2.29.44.29.72v8.17c0,.28-.1.52-.29.72s-.43.29-.72.29h-28.96c-.28,0-.52-.1-.72-.29Z" style="fill:#fff; stroke-width:0px;"/><path d="M250.63,105.16l-1.35-8.08c0-.28-.17-.42-.5-.42h-10.69c-.34,0-.51.14-.51.42l-1.35,8.08c-.06.62-.42.93-1.09.93h-9.85c-.73,0-1.01-.36-.84-1.09l12.37-56.91c.11-.62.48-.93,1.09-.93h11.36c.62,0,.98.31,1.09.93l12.29,56.91.08.34c0,.51-.31.76-.93.76h-10.1c-.67,0-1.04-.31-1.09-.93ZM239.6,87.48h7.58c.28,0,.39-.14.34-.42l-3.96-22.98c-.06-.17-.14-.25-.25-.25s-.2.08-.25.25l-3.79,22.98c0,.28.11.42.34.42Z" style="fill:#fff; stroke-width:0px;"/><path d="M272.01,104.82c-2.47-1.29-4.38-3.1-5.72-5.43-1.35-2.33-2.02-5.01-2.02-8.04v-2.44c0-.28.1-.52.29-.72.2-.2.43-.29.72-.29h9.68c.28,0,.52.1.72.29.2.2.29.44.29.72v1.85c0,1.74.45,3.14,1.35,4.21.9,1.07,2.02,1.6,3.37,1.6s2.47-.51,3.37-1.52c.9-1.01,1.35-2.33,1.35-3.96s-.56-3.13-1.68-4.33c-1.12-1.21-3.31-2.99-6.57-5.35-2.81-2.02-5.08-3.82-6.82-5.39-1.74-1.57-3.23-3.51-4.46-5.81-1.24-2.3-1.85-4.97-1.85-8,0-4.77,1.49-8.59,4.46-11.45,2.97-2.86,6.9-4.29,11.78-4.29s8.91,1.49,11.91,4.46c3,2.98,4.5,6.88,4.5,11.7v2.02c0,.28-.1.52-.29.72-.2.2-.44.29-.72.29h-9.68c-.28,0-.52-.1-.72-.29-.2-.2-.29-.43-.29-.72v-2.27c0-1.74-.44-3.13-1.31-4.17-.87-1.04-2.01-1.56-3.41-1.56s-2.44.49-3.28,1.47c-.84.98-1.26,2.34-1.26,4.08s.53,3.17,1.6,4.46c1.07,1.29,3.17,3.09,6.31,5.39,3.48,2.58,6.1,4.67,7.87,6.27,1.77,1.6,3.14,3.37,4.12,5.3.98,1.94,1.47,4.25,1.47,6.94,0,4.94-1.51,8.87-4.55,11.79-3.03,2.92-7.02,4.38-11.95,4.38-3.26,0-6.12-.65-8.59-1.94Z" style="fill:#fff; stroke-width:0px;"/><path d="M306.56,102.42c-3.06-2.89-4.59-6.75-4.59-11.57v-28.45c0-4.83,1.53-8.68,4.59-11.57,3.06-2.89,7.11-4.34,12.16-4.34s9.12,1.46,12.21,4.38c3.09,2.92,4.63,6.79,4.63,11.62v3.2c0,.28-.1.52-.29.72-.2.2-.44.29-.72.29h-9.85c-.28,0-.52-.1-.72-.29-.2-.2-.29-.43-.29-.72v-3.37c0-1.68-.45-3.04-1.35-4.08-.9-1.04-2.1-1.56-3.62-1.56s-2.64.52-3.53,1.56c-.9,1.04-1.35,2.4-1.35,4.08v28.62c0,1.68.45,3.04,1.35,4.08.9,1.04,2.08,1.56,3.53,1.56s2.72-.52,3.62-1.56c.9-1.04,1.35-2.4,1.35-4.08v-6.73c0-.28-.14-.42-.42-.42h-3.7c-.28,0-.52-.1-.72-.29-.2-.2-.29-.43-.29-.72v-7.49c0-.28.1-.52.29-.72s.43-.29.72-.29h14.98c.28,0,.52.1.72.29.2.2.29.44.29.72v15.57c0,4.83-1.54,8.69-4.63,11.57-3.09,2.89-7.16,4.34-12.21,4.34s-9.11-1.44-12.16-4.34Z" style="fill:#fff; stroke-width:0px;"/><path d="M345.92,102.21c-3.09-3.03-4.63-7.07-4.63-12.12v-26.94c0-5.05,1.54-9.09,4.63-12.12,3.09-3.03,7.21-4.55,12.37-4.55s9.3,1.52,12.42,4.55c3.11,3.03,4.67,7.07,4.67,12.12v26.94c0,5.05-1.56,9.09-4.67,12.12-3.11,3.03-7.25,4.55-12.42,4.55s-9.29-1.52-12.37-4.55ZM362.08,94.93c.95-1.09,1.43-2.54,1.43-4.34v-27.95c0-1.8-.48-3.24-1.43-4.34-.96-1.09-2.22-1.64-3.79-1.64s-2.82.55-3.75,1.64-1.39,2.54-1.39,4.34v27.95c0,1.8.46,3.24,1.39,4.34s2.17,1.64,3.75,1.64,2.83-.55,3.79-1.64Z" style="fill:#fff; stroke-width:0px;"/><path d="M391.29,105.16l-11.37-56.91-.08-.34c0-.51.31-.76.93-.76h10.27c.67,0,1.04.31,1.09.93l4.8,30.31c.06.22.14.34.25.34s.2-.11.25-.34l4.55-30.31c.06-.62.42-.93,1.09-.93h8.5c.67,0,1.04.31,1.09.93l4.97,30.31c.06.22.14.34.25.34s.2-.11.25-.34l4.29-30.31c.06-.62.42-.93,1.09-.93h9.93c.73,0,1.04.37.93,1.09l-10.69,56.91c-.06.62-.42.93-1.09.93h-9.09c-.67,0-1.04-.31-1.09-.93l-4.97-31.15c-.06-.22-.14-.34-.25-.34s-.2.11-.25.34l-4.46,31.15c-.06.62-.42.93-1.09.93h-9.01c-.62,0-.98-.31-1.09-.93Z" style="fill:#fff; stroke-width:0px;"/><path d="M442.18,102.25c-3.06-3-4.59-7.03-4.59-12.08v-27.27c0-4.99,1.53-8.98,4.59-11.95,3.06-2.97,7.11-4.46,12.16-4.46s9.19,1.49,12.25,4.46c3.06,2.98,4.59,6.96,4.59,11.95v.93c0,.28-.1.52-.29.72-.2.2-.44.29-.72.29l-9.85.42c-.67,0-1.01-.31-1.01-.93v-2.19c0-1.63-.45-2.95-1.35-3.96-.9-1.01-2.1-1.52-3.62-1.52s-2.64.51-3.53,1.52c-.9,1.01-1.35,2.33-1.35,3.96v29.04c0,1.63.45,2.93,1.35,3.91.9.98,2.08,1.47,3.53,1.47s2.72-.49,3.62-1.47c.9-.98,1.35-2.29,1.35-3.91v-2.27c0-.28.1-.52.29-.72.2-.2.43-.29.72-.29l9.85.42c.28,0,.52.1.72.29.2.2.29.44.29.72v.84c0,5.05-1.54,9.08-4.63,12.08-3.09,3-7.16,4.5-12.21,4.5s-9.11-1.5-12.16-4.5Z" style="fill:#eec12e; stroke-width:0px;"/><path d="M481.23,102.25c-3.06-3-4.59-7.03-4.59-12.08v-27.27c0-4.99,1.53-8.98,4.59-11.95,3.06-2.97,7.11-4.46,12.16-4.46s9.19,1.49,12.25,4.46c3.06,2.98,4.59,6.96,4.59,11.95v.93c0,.28-.1.52-.29.72-.2.2-.44.29-.72.29l-9.85.42c-.67,0-1.01-.31-1.01-.93v-2.19c0-1.63-.45-2.95-1.35-3.96-.9-1.01-2.1-1.52-3.62-1.52s-2.64.51-3.53,1.52c-.9,1.01-1.35,2.33-1.35,3.96v29.04c0,1.63.45,2.93,1.35,3.91.9.98,2.08,1.47,3.53,1.47s2.72-.49,3.62-1.47c.9-.98,1.35-2.29,1.35-3.91v-2.27c0-.28.1-.52.29-.72.2-.2.43-.29.72-.29l9.85.42c.28,0,.52.1.72.29.2.2.29.44.29.72v.84c0,5.05-1.54,9.08-4.63,12.08-3.09,3-7.16,4.5-12.21,4.5s-9.11-1.5-12.16-4.5Z" style="fill:#eec12e; stroke-width:0px;"/><path d="M549.92,47.45c.2.2.29.44.29.72v8.17c0,.28-.1.52-.29.72-.2.2-.44.29-.72.29h-10.52c-.28,0-.42.14-.42.42v47.31c0,.28-.1.52-.29.72s-.44.29-.72.29h-9.85c-.28,0-.52-.1-.72-.29-.2-.2-.29-.43-.29-.72v-47.31c0-.28-.14-.42-.42-.42h-10.1c-.28,0-.52-.1-.72-.29-.2-.2-.29-.43-.29-.72v-8.17c0-.28.1-.52.29-.72.2-.2.43-.29.72-.29h33.33c.28,0,.52.1.72.29Z" style="fill:#e87769; stroke-width:0px;"/><path d="M566.21,105.16l-12.04-56.91-.08-.34c0-.51.31-.76.93-.76h10.86c.67,0,1.04.31,1.09.93l5.81,37.04c.06.23.14.34.25.34s.2-.11.25-.34l5.64-37.04c.05-.62.42-.93,1.09-.93h10.52c.73,0,1.01.37.84,1.09l-12.12,56.91c-.11.62-.48.93-1.09.93h-10.86c-.62,0-.98-.31-1.09-.93Z" style="fill:#e87769; stroke-width:0px;"/><path d="M40.12,22.3c0-12.32,7.21-22.3,16.1-22.3h96.24c.67,14.08-9.05,18.98-9.05,18.98h-2.8c-.84-4.22-3.15-7.47-5.23-9.64,1.89,3.65,3,8.12,3,12.96,0,12.32-7.21,22.3-16.09,22.3H56.22c-8.89,0-16.1-9.99-16.1-22.3M122.28,38.42c6.14,0,11.12-7.21,11.12-16.11,0-6.6-2.74-12.26-6.65-14.76-2.77,6.99-9.98,9.71-15.24,10.76-.23,1.28-.34,2.62-.34,3.99,0,8.9,4.98,16.11,11.12,16.11Z" style="fill:#26539e; stroke-width:0px;"/><path d="M122.28,14.53c2.92,0,5.28,3.48,5.28,7.77s-2.37,7.77-5.28,7.77-5.28-3.48-5.28-7.77,2.36-7.77,5.28-7.77" style="fill:#e87769; stroke-width:0px;"/><path d="M70.13,61c.32,0,.63.03.93.07l7.59-9.8c-3.7-1.76-5-4.86-5-4.86h21.13v1.01s-2.12,4.23-8.69,4.93l-9.89,12.77c.3.75.47,1.57.47,2.42,0,3.61-2.93,6.54-6.54,6.54-2.52,0-4.71-1.43-5.8-3.52H0v-6.54h64.63c1.16-1.81,3.19-3.02,5.5-3.02" style="fill:#eec12e; stroke-width:0px;"/></g></svg>