<?xml version="1.0" encoding="UTF-8"?><svg id="Layer_2" xmlns="http://www.w3.org/2000/svg" viewBox="0 0 152.49 74.08"><g id="Layer_1-2"><path d="M40.12,22.3c0-12.32,7.21-22.3,16.1-22.3h96.24c.67,14.08-9.05,18.98-9.05,18.98h-2.8c-.84-4.22-3.15-7.47-5.23-9.64,1.89,3.65,3,8.12,3,12.96,0,12.32-7.21,22.3-16.09,22.3H56.22c-8.89,0-16.1-9.99-16.1-22.3M122.28,38.42c6.14,0,11.12-7.21,11.12-16.11,0-6.6-2.74-12.26-6.65-14.76-2.77,6.99-9.98,9.71-15.24,10.76-.23,1.28-.34,2.62-.34,3.99,0,8.9,4.98,16.11,11.12,16.11Z" style="fill:#26539e; stroke-width:0px;"/><path d="M122.28,14.53c2.92,0,5.28,3.48,5.28,7.77s-2.37,7.77-5.28,7.77-5.28-3.48-5.28-7.77,2.36-7.77,5.28-7.77" style="fill:#e87769; stroke-width:0px;"/><path d="M70.13,61c.32,0,.63.03.93.07l7.59-9.8c-3.7-1.76-5-4.86-5-4.86h21.13v1.01s-2.12,4.23-8.69,4.93l-9.89,12.77c.3.75.47,1.57.47,2.42,0,3.61-2.93,6.54-6.54,6.54-2.52,0-4.71-1.43-5.8-3.52H0v-6.54h64.63c1.16-1.81,3.19-3.02,5.5-3.02" style="fill:#eec12e; stroke-width:0px;"/></g></svg>