<?xml version="1.0" encoding="UTF-8"?><svg id="Layer_2" xmlns="http://www.w3.org/2000/svg" viewBox="0 0 18.05 18.05"><g id="Layer_1-2"><path d="M0,9.02c0,4.98,4.04,9.02,9.02,9.02s9.02-4.04,9.02-9.02S14.01,0,9.02,0,0,4.04,0,9.02" style="fill:#26529d; stroke-width:0px;"/><path d="M15.09,6.07v6.31s-.03.06-.07.06H3.04s-.07-.03-.07-.06v-6.31c0-.05.07-.08.12-.05l5.42,3.75.31.21c.12.09.3.09.43,0l5.73-3.96s.12,0,.12.05" style="fill:#eec030; stroke-width:0px;"/><path d="M14.26,5.72l-5.02,3.47c-.12.09-.3.09-.43,0l-5.02-3.47c-.05-.04-.02-.11.05-.11h10.38c.07,0,.1.08.05.11" style="fill:#eec030; stroke-width:0px;"/></g></svg>