<?xml version="1.0" encoding="UTF-8"?><svg id="Layer_2" xmlns="http://www.w3.org/2000/svg" viewBox="0 0 18.05 18.05"><g id="Layer_1-2"><path d="M0,9.02c0,4.98,4.04,9.02,9.02,9.02s9.02-4.04,9.02-9.02S14.01,0,9.02,0,0,4.04,0,9.02" style="fill:#26529d; stroke-width:0px;"/><path d="M13.89,11.85l-.21.51c-.26.65-.79,1.17-1.44,1.42-.29.11-.6.17-.9.17-.38,0-.76-.08-1.11-.25-3.34-1.63-5.04-4.08-5.89-5.85-.3-.63-.33-1.34-.08-2,.25-.65.74-1.16,1.39-1.43l.55-.23c.5-.21,1.08,0,1.33.48l.72,1.36c.29.55.12,1.22-.41,1.56l-.27.17c-.18.12-.24.35-.12.53.34.56.99,1.4,2.13,2.19.17.12.41.08.54-.09l.29-.39c.36-.49,1.03-.62,1.56-.32l1.48.86c.45.26.64.82.44,1.3" style="fill:#eec030; stroke-width:0px;"/></g></svg>