<?xml version="1.0" encoding="UTF-8"?><svg id="Layer_2" xmlns="http://www.w3.org/2000/svg" viewBox="0 0 19.32 19.32"><g id="Layer_1-2"><path d="M19.32,9.66c0,5.33-4.33,9.66-9.66,9.66S0,14.99,0,9.66,4.33,0,9.66,0s9.66,4.33,9.66,9.66" style="fill:#26529d; fill-rule:evenodd; stroke-width:0px;"/><path d="M14.39,6.74c-.35.15-.72.26-1.11.31.4-.24.71-.62.85-1.07-.37.22-.79.38-1.23.47-.35-.38-.86-.61-1.41-.61-1.07,0-1.94.87-1.94,1.94,0,.15.02.3.05.44-1.61-.08-3.04-.85-3.99-2.03-.17.29-.26.62-.26.98,0,.67.34,1.26.86,1.61-.32-.01-.62-.1-.88-.24v.02c0,.94.67,1.72,1.55,1.9-.16.04-.33.07-.51.07-.13,0-.25-.01-.36-.03.25.77.96,1.33,1.81,1.35-.66.52-1.5.83-2.41.83-.16,0-.31,0-.46-.03.86.55,1.88.87,2.97.87,3.56,0,5.51-2.95,5.51-5.51,0-.09,0-.17,0-.25.38-.27.71-.61.97-1" style="fill:#fff; stroke-width:0px;"/></g></svg>